<?xml version='1.0' encoding='utf-8'?>
<svg xmlns="http://www.w3.org/2000/svg" width="297.19357mm" height="295.26874mm" viewBox="0 0 297.19357 295.26874" version="1.1" id="svg5" xml:space="preserve"><defs id="defs2" /><g id="layer1"><path style="fill:#000000" d="m 98.21230000000014 294.6737199999999 c -8.17,-1.27 -17.3,-4.267 -25.77,-8.456 -7.31,-3.614 -11.54,-6.566 -16.41,-11.443 -9.37,-9.401 -14.44,-20.604 -15.85,-35.078 -1.21,-12.389 0.76,-27.955 5.34,-42.184 4.46,-13.854 10.46,-26.211 18.44,-37.943 l 2.89,-4.252 -2.72,-2.87 c -6.01,-6.332 -9.85,-11.712 -13.05,-18.259 -3.54,-7.261 -5.52,-14.262 -6.43,-22.72 l -0.44,-4.024 -3.88,-0.96197 c -10.87,-2.699 -20.05,-8.208 -27.3,-16.391 -5.81,-6.57 -10.34,-15.637 -12.23,-24.518 -0.9,-4.21 -1.08,-13.836 -0.35,-18.49 3.5,-22.197 19.75,-40.136 41.47,-45.773 3.39,-0.878 5,-1.085 9.74,-1.251 6.12,-0.214 9.64,0.124 14.43,1.386 8.25,2.177 15.57,6.363 23,13.171 l 2.96,2.704 1.89,-1.253 c 4.98,-3.309 14.63,-7.874 21.32,-10.087 11.99,-3.964 23.03,-5.562 36.02,-5.212 18.73,0.505 36.2,5.518 50.89,14.605 l 3.16,1.956 2.34,-2.275 c 8.16,-7.909 17.68,-12.827 28.24,-14.583 4.81,-0.8 13.51,-0.548 18.21,0.527 10.98,2.514 20.22,7.848 28.11,16.227 7.14,7.578 12,16.954 14.26,27.534 0.93,4.347 0.94,16.223 0,20.461 -2.39,10.89 -7.07,19.561 -14.68,27.186 -7.3,7.321 -16.14,12.221 -26.03,14.424 -1.63,0.36197 -3,0.71297 -3.06,0.77897 0,0.07 -0.27,1.816 -0.49,3.887 -1.67,15.813 -7.77,29.115 -18.74,40.854 -1.18,1.258 -2.14,2.359 -2.14,2.448 0,0.09 1.41,2.235 3.12,4.769 9.64,14.219 16.59,29.765 20.33,45.445 7.28,30.553 2.56,55.184 -13.5,70.534 -8.22,7.853 -19.86,13.915 -33.41,17.395 -8.67,2.229 -17.63,2.943 -22.15,1.765 -4.6,-1.197 -8.9,-4.392 -10.83,-8.036 -0.59,-1.108 -1.06,-1.608 -1.41,-1.5 -1.67,0.51 -16.32,1.239 -24.7,1.229 -8.82,-0.01 -12.38,-0.155 -22.05,-0.891 l -3.17,-0.242 -0.58,1.206 c -1.69,3.546 -6.58,7.111 -11.27,8.217 -2.81,0.661 -9.22,0.654 -13.53,-0.02 z m 11.44,-12.326 c 2.3,-1.182 3.47,-3.836 2.87,-6.507 -1.22,-5.403 -11.55,-15.791 -17.77,-17.856 -4.16,-1.38 -8.43,0.01 -12.41,4.048 -3.27,3.309 -5.47,6.534 -7.06,10.351 l -0.55,1.315 1.85,0.941 c 9.17,4.655 24.65,8.894 30.43,8.334 0.97,-0.09 2.16,-0.376 2.64,-0.626 z m 89.3,-0.202 c 4.26,-0.775 10.01,-2.329 13.59,-3.672 4.47,-1.68 10.36,-4.489 10.36,-4.944 0,-1.044 -3.38,-7.085 -5.29,-9.44 -5.12,-6.349 -10.18,-8.09 -15.71,-5.417 -5.05,2.434 -10.74,7.58 -14.48,13.082 -1.75,2.584 -2.06,3.28 -2.2,5.008 -0.2,2.407 0.41,3.776 2.25,5.034 2.29,1.565 4.45,1.631 11.48,0.349 z m -29.97,-9.141 4.82,-0.457 0.74,-2.005 c 1.86,-5.107 8.66,-13.234 15.43,-18.44 2.62,-2.011 6.64,-4.223 9.5,-5.225 2.55,-0.896 7.99,-1.265 10.81,-0.735 8.23,1.548 15.85,7.924 20.98,17.551 0.86,1.63 1.63,2.964 1.7,2.964 0.1,0 1.4,-1.693 2.95,-3.761 6.74,-8.983 9.56,-18.25 9.56,-31.436 0,-9.414 -1.43,-18.535 -4.66,-29.618 -0.81,-2.76 -1.52,-4.962 -1.59,-4.894 -0.1,0.07 -0.43,1.391 -0.8,2.937 -0.75,3.129 -3.04,8.742 -4.83,11.789 -4.54,7.775 -11.79,14.654 -19.29,18.291 -12.52,6.078 -22.41,4.8 -24.56,-3.172 -0.22,-0.838 -0.34,-0.876 -2.41,-0.762 -1.69,0.09 -2.53,-0.05 -3.77,-0.652 -2.79,-1.35 -4.76,-5.325 -4.22,-8.518 0.22,-1.294 0.2,-1.321 -1.19,-1.695 -2.14,-0.576 -4.39,-3.262 -5.18,-6.177 -1.83,-6.74 1.34,-14.72 8.83,-22.265 7.28,-7.341 13.49,-10.288 17.43,-8.278 2.86,1.46 3.67,5.626 1.58,8.115 -0.49,0.576 -1.87,1.634 -3.07,2.352 -5.67,3.389 -10.05,7.832 -12.54,12.73 -0.42,0.817 -0.76,1.574 -0.76,1.683 0,0.109 0.66,-0.137 1.46,-0.545 0.8,-0.409 2.28,-0.828 3.29,-0.932 2.48,-0.257 3.91,0.503 4.83,2.566 0.86,1.96 0.67,3.169 -1.16,7.255 -0.75,1.675 -1.36,3.154 -1.36,3.287 0,0.133 0.46,-0.09 1.03,-0.493 1.78,-1.266 4.03,-2.119 5.6,-2.128 2.22,-0.01 3.43,0.754 4.15,2.634 0.63,1.67 0.56,2.077 -1.07,5.914 -0.41,0.961 1.42,0.795 4.79,-0.434 9.35,-3.411 17.27,-12.255 20.79,-23.212 1.75,-5.469 2.2,-8.961 2.03,-15.954 -0.13,-5.35 -0.25,-6.399 -0.91,-7.864 -0.9,-2.017 -6.14,-10.434 -6.51,-10.461 -0.14,-0.01 -1.3,0.623 -2.58,1.407 -7.4,4.524 -15.3,8.087 -24.85,11.195 -16.25,5.291 -27.29,6.968 -45.69,6.94 -11.69,-0.02 -16.55,-0.409 -26.35,-2.118 -14.84,-2.589 -32.12,-8.932 -42.36,-15.545 -1.32,-0.85 -2.51,-1.544 -2.65,-1.543 -0.25,0 -4.1,5.824 -5.86,8.87 -1.26,2.187 -1.64,4.744 -1.65,10.928 0,13.816 5.6,25.97 15.35,33.28 3.25,2.433 9.41,5.128 11.74,5.128 h 0.82 l -0.89,-1.752 c -3.16,-6.242 2.86,-9.836 9.23,-5.508 0.72,0.49 1.36,0.837 1.43,0.772 0.1,-0.07 -0.59,-1.582 -1.46,-3.369 -1.96,-4.029 -2.29,-5.836 -1.39,-7.676 1.27,-2.598 4.5,-3.239 7.94,-1.574 0.87,0.419 1.69,0.763 1.83,0.763 0.33,0 -1.38,-3.344 -2.71,-5.288 -1.82,-2.647 -5.21,-5.713 -9.17,-8.283 -4.37,-2.831 -5.4,-4.275 -5.09,-7.086 0.24,-2.113 1.08,-3.263 3,-4.11 2.13,-0.943 3.71,-0.706 7.3,1.095 3.71,1.857 6.77,4.209 10.36,7.941 6.12,6.377 8.82,12.417 8.47,18.982 -0.13,2.498 -0.33,3.296 -1.23,4.894 -1.2,2.136 -2.72,3.342 -4.91,3.893 l -1.47,0.37 v 2.703 c 0,2.964 -0.4,4.149 -2.11,5.772 -1.5,1.424 -3.45,2.108 -5.7,2.003 -1.82,-0.08 -1.98,-0.03 -2.2,0.773 -1.44,5.375 -7.13,7.926 -14.56,6.527 -12.39,-2.331 -24.07,-11.495 -30.37,-23.836 -1.81,-3.534 -4.09,-9.825 -4.09,-11.273 0,-4.223 -3.99,8.807 -5.62,18.346 -1.59,9.362 -1.79,19.311 -0.53,26.631 1.39,8.02 5.09,15.803 10.32,21.7 l 1.36,1.536 1.55,-2.982 c 3.92,-7.536 9.98,-13.435 16.52,-16.077 7.47,-3.017 15.99,-1.577 23.9,4.042 6.86,4.871 15.06,14.545 16.49,19.46 l 0.47,1.587 2.08,0.269 c 7.68,0.994 33.47,1.149 42.88,0.258 z m -13.11,-103.358 c 34.67,-2.041 61.46,-14.403 74.98,-34.595 3.81,-5.683 6.35,-11.876 7.97,-19.383 0.71,-3.254 0.8,-4.733 0.82,-12.17097 0,-8.818 -0.15,-10.42 -1.79,-17.775 -1.72,-7.708 -5.29,-17.085 -9.05,-23.833 -3.15,-5.641 -2.8,-7.279 2.45,-11.485 7.16,-5.733 12.07,-7.481 21.1,-7.518 6.85,-0.03 8.87,0.277 10.12,1.526 1.25,1.253 1.33,2.867 0.2,4.002 -0.61,0.602 -1.81,0.995 -4.85,1.59 -7.09,1.381 -10.88,2.885 -13.59,5.389 -2.45,2.25 -2.83,4.721 -1.13,7.133 1.44,2.032 4,2.405 10.14,1.479 4.23,-0.638 8.58,-2.001 12.02,-3.763 3.1,-1.594 3.82,-1.67 5.12,-0.546 2.01,1.727 0.84,4.027 -4.27,8.402 -4.5,3.855 -9.28,6.131 -14.73,7.009 -1.51,0.244 -2.73,0.616 -2.73,0.833 0,0.216 0.46,2.219 1.01,4.45 0.55,2.231 1.37,6.319 1.82,9.084 0.45,2.765 0.95,5.027 1.11,5.027 1.07,0 7.73,-2.473 10.39,-3.863 7.42,-3.876 12.95,-9.38 17.01,-16.951 3.27,-6.084 4.43,-10.908 4.44,-18.521 0,-7.571 -1.12,-12.572 -4.3,-18.922 -7.18,-14.305 -21.58,-23.588 -36.6,-23.588 -10.79,0 -20.91,4.772 -29,13.67 -4.45,4.898 -4.94,5.326 -6.57,5.772 -1.91,0.522 -4.08,-0.01 -6.23,-1.54 -14.27,-10.132 -28.41,-15.322 -45.86,-16.838 -12.79,-1.11 -26.82,0.738 -39.08,5.145 -6.77,2.437 -11.63,5.125 -22.05,12.21 -0.78,0.525 -2.07,1.055 -2.89,1.177 -2.45,0.368 -3.81,-0.479 -8.24,-5.145 -9.43,-9.942 -18.77,-14.451 -29.93,-14.451 -18.1,0 -35.01,13.728 -39.85,32.352 -1.21,4.63 -1.52,11.909 -0.71,16.556 2.26,12.965 9.74,23.212 21.27,29.145 2.71,1.393 9.92,3.985 10.23,3.676 0.1,-0.06 0.29,-1.368 0.5,-2.907 0.46,-3.359 2.23,-12.016 2.93,-14.342 l 0.5,-1.667 -1.29,-0.201 c -7.59,-1.184 -12.72,-3.778 -18.38,-9.289 -3.11,-3.023 -3.52,-4.123 -2.11,-5.631 0.94,-1.013 2.31,-0.984 4.76,0.101 5.8,2.566 12.17,3.9 17.42,3.649 3.46,-0.166 4.55,-0.645 5.69,-2.513 1.38,-2.261 0.65,-5.002 -1.86,-7.064 -2.92,-2.394 -7,-3.913 -14.82,-5.514 -2.3,-0.471 -3.45,-1.56 -3.45,-3.26 0,-2.509 1.8,-3.391 7.55,-3.696 7.04,-0.373 13.21,0.95 18.21,3.902 3.35,1.985 8.37,6.028 9.42,7.59 1.28,1.902 1.1,3.964 -0.61,7.123 -6.1,11.248 -9.21,19.816 -10.97,30.131 -1.04,6.157 -1.28,15.754 -0.51,20.98997 1.71,11.717 5.22,19.594 12.69,28.491 13.94,16.599 40.1,27.554 70.06,29.331 6.95,0.413 9.06,0.418 15.52,0.04 z m -13.05,-20.915 c -4.55,-1.556 -8.32,-4.516 -11.13,-8.74 -2.71,-4.083 -4.04,-7.957 -4.75,-13.885 -0.9,-7.596 1.8,-18.757 6.5,-26.84297 1.92,-3.304 6.48,-7.88 9.12,-9.161 5.23,-2.53 11.47,-1.382 16.24,2.985 5.49,5.028 9.88,14.58697 11.39,24.79497 1.46,9.908 -1.19,19.423 -7.09,25.456 -4.26,4.356 -8.62,6.203 -14.59,6.187 -2.57,-0.01 -3.96,-0.199 -5.69,-0.794 z m -41.16,-34.461 c -5.11,-1.212 -8.62,-7.305 -7.53,-13.05397 1.75,-9.227 11.29,-11.941 16.17,-4.599 1.44,2.17 1.89,3.827 1.88,6.823 0,4.52097 -1.88,8.03097 -5.22,9.81597 -1.98,1.058 -3.72,1.39 -5.3,1.014 z m 91.37,0 c -1.63,-0.387 -4.06,-1.907 -4.92,-3.077 -2.07,-2.812 -2.43,-3.976 -2.43,-7.87297 0,-3.335 0.1,-3.88 0.94,-5.468 3.07,-5.758 8.75,-7.169 13.17,-3.273 4.46,3.922 5.17,10.648 1.66,15.79697 -1.98,2.917 -5.56,4.573 -8.42,3.894 z" id="path599" /></g></svg>